<?xml version="1.0" standalone="no"?>
<!DOCTYPE svg PUBLIC "-//W3C//DTD SVG 20010904//EN"
 "http://www.w3.org/TR/2001/REC-SVG-20010904/DTD/svg10.dtd">
<svg version="1.0" xmlns="http://www.w3.org/2000/svg"
 width="512.000000pt" height="512.000000pt" viewBox="0 0 512.000000 512.000000"
 preserveAspectRatio="xMidYMid meet">

<g transform="translate(0.000000,512.000000) scale(0.100000,-0.100000)"
fill="#000000" stroke="none">
<path d="M395 5106 c-196 -49 -343 -202 -386 -405 -6 -29 -8 -816 -7 -2171 l3
-2125 22 -58 c58 -154 173 -268 323 -319 l65 -23 2145 0 c2089 0 2147 1 2204
19 151 50 276 174 328 326 l23 65 0 2145 c0 2089 -1 2147 -19 2204 -49 148
-168 270 -322 328 l-59 23 -2135 2 c-1671 1 -2146 -1 -2185 -11z m3493 -1555
c136 -28 230 -78 323 -170 101 -101 142 -187 163 -343 l5 -38 -179 0 -178 0
-7 37 c-16 85 -83 165 -170 204 -61 27 -193 37 -270 20 -113 -25 -191 -108
-202 -215 -12 -118 41 -202 162 -257 35 -16 140 -51 234 -79 297 -87 391 -131
484 -223 95 -94 137 -207 137 -361 0 -247 -157 -452 -415 -543 -76 -26 -89
-28 -255 -28 -156 0 -183 3 -250 23 -271 85 -428 262 -447 503 l-6 79 174 -2
174 -3 7 -48 c16 -113 92 -209 192 -244 77 -27 243 -24 316 5 106 42 172 132
173 237 1 81 -15 123 -66 173 -53 52 -137 90 -302 136 -325 92 -422 135 -515
228 -73 72 -116 157 -131 258 -28 185 26 362 147 484 155 155 435 222 702 167z
m-2485 -763 c182 -406 333 -738 336 -738 3 0 155 333 336 740 l330 740 168 0
167 0 0 -985 0 -985 -165 0 -165 0 -2 622 -3 622 -276 -619 -276 -620 -111 -3
c-106 -3 -112 -2 -125 20 -8 13 -133 290 -278 616 l-264 593 -5 -613 -5 -613
-165 0 -165 0 -3 983 -2 982 172 -2 171 -3 330 -737z"/>
</g>
</svg>
